<svg width="30" height="45" viewBox="0 0 30 45" fill="none" xmlns="http://www.w3.org/2000/svg">
<rect x="1" y="8.5" width="28" height="35.5" rx="9" stroke="white" stroke-width="2"/>
<path fill-rule="evenodd" clip-rule="evenodd" d="M14.75 2H16C17.6569 2 19 3.34315 19 5V6.25C19 6.42036 18.9858 6.5874 18.9585 6.75H20.9753C20.9916 6.58555 21 6.41875 21 6.25V5C21 2.23858 18.7614 0 16 0H14.75C11.9886 0 9.75 2.23858 9.75 5V6.25C9.75 6.41875 9.75836 6.58555 9.77469 6.75H11.7915C11.7642 6.5874 11.75 6.42036 11.75 6.25V5C11.75 3.34315 13.0931 2 14.75 2Z" fill="white"/>
<path d="M10.75 23H8.05682V14.2727H10.8693C11.7159 14.2727 12.4403 14.4474 13.0426 14.7969C13.6449 15.1435 14.1065 15.642 14.4276 16.2926C14.7486 16.9403 14.9091 17.7159 14.9091 18.6193C14.9091 19.5284 14.7472 20.3111 14.4233 20.9673C14.0994 21.6207 13.6278 22.1236 13.0085 22.4759C12.3892 22.8253 11.6364 23 10.75 23ZM9.11364 22.0625H10.6818C11.4034 22.0625 12.0014 21.9233 12.4759 21.6449C12.9503 21.3665 13.304 20.9702 13.5369 20.456C13.7699 19.9418 13.8864 19.3295 13.8864 18.6193C13.8864 17.9148 13.7713 17.3082 13.5412 16.7997C13.3111 16.2884 12.9673 15.8963 12.5099 15.6236C12.0526 15.348 11.483 15.2102 10.8011 15.2102H9.11364V22.0625ZM16.6296 23H15.5217L18.7262 14.2727H19.8171L23.0217 23H21.9137L19.3058 15.6534H19.2376L16.6296 23ZM17.0387 19.5909H21.5046V20.5284H17.0387V19.5909ZM12.8295 31.4545C12.7784 31.0227 12.571 30.6875 12.2074 30.4489C11.8438 30.2102 11.3977 30.0909 10.8693 30.0909C10.483 30.0909 10.1449 30.1534 9.85511 30.2784C9.56818 30.4034 9.34375 30.5753 9.18182 30.794C9.02273 31.0128 8.94318 31.2614 8.94318 31.5398C8.94318 31.7727 8.99858 31.973 9.10938 32.1406C9.22301 32.3054 9.3679 32.4432 9.54403 32.554C9.72017 32.6619 9.90483 32.7514 10.098 32.8224C10.2912 32.8906 10.4688 32.946 10.6307 32.9886L11.517 33.2273C11.7443 33.2869 11.9972 33.3693 12.2756 33.4744C12.5568 33.5795 12.8253 33.723 13.081 33.9048C13.3395 34.0838 13.5526 34.3139 13.7202 34.5952C13.8878 34.8764 13.9716 35.2216 13.9716 35.6307C13.9716 36.1023 13.848 36.5284 13.6009 36.9091C13.3565 37.2898 12.9986 37.5923 12.527 37.8168C12.0582 38.0412 11.4886 38.1534 10.8182 38.1534C10.1932 38.1534 9.65199 38.0526 9.1946 37.8509C8.74006 37.6491 8.3821 37.3679 8.12074 37.0071C7.86222 36.6463 7.71591 36.2273 7.68182 35.75H8.77273C8.80114 36.0795 8.91193 36.3523 9.10511 36.5682C9.30114 36.7812 9.5483 36.9403 9.84659 37.0455C10.1477 37.1477 10.4716 37.1989 10.8182 37.1989C11.2216 37.1989 11.5838 37.1335 11.9048 37.0028C12.2259 36.8693 12.4801 36.6847 12.6676 36.4489C12.8551 36.2102 12.9489 35.9318 12.9489 35.6136C12.9489 35.3239 12.8679 35.0881 12.706 34.9062C12.544 34.7244 12.331 34.5767 12.0668 34.4631C11.8026 34.3494 11.517 34.25 11.2102 34.1648L10.1364 33.858C9.45455 33.6619 8.91477 33.3821 8.51705 33.0185C8.11932 32.6548 7.92045 32.179 7.92045 31.5909C7.92045 31.1023 8.05256 30.6761 8.31676 30.3125C8.58381 29.946 8.94176 29.6619 9.39062 29.4602C9.84233 29.2557 10.3466 29.1534 10.9034 29.1534C11.4659 29.1534 11.9659 29.2543 12.4034 29.456C12.8409 29.6548 13.1875 29.9276 13.4432 30.2741C13.7017 30.6207 13.8381 31.0142 13.8523 31.4545H12.8295ZM16.0671 38H14.9592L18.1637 29.2727H19.2546L22.4592 38H21.3512L18.7433 30.6534H18.6751L16.0671 38ZM16.4762 34.5909H20.9421V35.5284H16.4762V34.5909Z" fill="white"/>
<path d="M3 25.5L3.65542 25.8277C4.21084 26.1054 4.82329 26.25 5.44427 26.25H24.2747C24.7543 26.25 25.23 26.3363 25.6792 26.5047L27 27" stroke="white" stroke-width="2" stroke-linecap="round"/>
</svg>
